# xmcd CD database file
#
# Track frame offsets:
#	187
#	21605
#	48135
#	69605
#
# Disc length: 1279 seconds
#
# Revision: 1
# Processed by: cddbd v1.5.1PL0 Copyright (c) Steve Scherf et al.
# Submitted via: CDex 1.51
#
DISCID=3204fd04
DTITLE=LINDBERG - 胸さわぎのAfter School (Single)
DYEAR=1993
DGENRE=Pop
TTITLE0=胸さわぎのAfter School
TTITLE1=Be My Valentine
TTITLE2=胸さわぎのAfterSchool（カラオケ）
TTITLE3=Be My Valentine（カラオケ）
EXTD=YEAR: 1993
EXTT0=
EXTT1=
EXTT2=
EXTT3=
PLAYORDER=
